# xmcd CD database file generated by LOLA_Freedb v0.9beta0
# 
# Track frame offsets:
#      150
#      30408
#      53685
#      83225
#      108860
#      132989
#      153788
# 
# Disc length: 2364 seconds
# 
# Revision: 0 
# Processed by: cddbd v1.5.2PL0 Copyright (c) Steve Scherf et al.
# Submitted via: LOLA_Freedb v0.9beta0
# 
DISCID=47093a07
DTITLE=Dance People - Fly Away
DYEAR=1979
DGENRE=
TTITLE0=Dance People - Fly Away
TTITLE1=Dance People - Funk Attack
TTITLE2=Dance People - Dance People
TTITLE3=Dance People - Give Your Feet A Treat
TTITLE4=Dance People - Snakes And Ladders
TTITLE5=Dance People - Midnight Breeze
TTITLE6=Dance People - Dance The Night Away
EXTD=
EXTT0=
EXTT1=
EXTT2=
EXTT3=
EXTT4=
EXTT5=
EXTT6=
PLAYORDER=
